<svg width="14" height="14" viewBox="0 0 14 14" fill="none" xmlns="http://www.w3.org/2000/svg">
<g id="Outlined / Info" clip-path="url(#clip0_1538_1690)">
<g id="Vector">
<path fill-rule="evenodd" clip-rule="evenodd" d="M7.00313 1.63646C4.0392 1.63646 1.63646 4.0392 1.63646 7.00313C1.63646 9.96705 4.0392 12.3698 7.00313 12.3698C9.96705 12.3698 12.3698 9.96705 12.3698 7.00313C12.3698 4.0392 9.96705 1.63646 7.00313 1.63646ZM0.703125 7.00313C0.703125 3.52373 3.52373 0.703125 7.00313 0.703125C10.4825 0.703125 13.3031 3.52373 13.3031 7.00313C13.3031 10.4825 10.4825 13.3031 7.00313 13.3031C3.52373 13.3031 0.703125 10.4825 0.703125 7.00313Z" fill="#4D4D4D"/>
<path fill-rule="evenodd" clip-rule="evenodd" d="M7.00312 6.62675C7.26086 6.62675 7.46979 6.83568 7.46979 7.09342L7.4698 9.44897C7.4698 9.7067 7.26087 9.91563 7.00314 9.91563C6.7454 9.91563 6.53647 9.7067 6.53647 9.44897L6.53646 7.09342C6.53646 6.83569 6.74539 6.62675 7.00312 6.62675Z" fill="#4D4D4D"/>
<path fill-rule="evenodd" clip-rule="evenodd" d="M7.53094 4.76145C7.53094 5.05295 7.29464 5.28926 7.00314 5.28926C6.71164 5.28926 6.47533 5.05295 6.47533 4.76145C6.47533 4.46995 6.71164 4.23365 7.00314 4.23365C7.29464 4.23365 7.53094 4.46995 7.53094 4.76145Z" fill="#4D4D4D"/>
</g>
</g>
<defs>
<clipPath id="clip0_1538_1690">
<rect width="14" height="14" fill="white"/>
</clipPath>
</defs>
</svg>
