<svg width="20" height="20" viewBox="0 0 20 20" fill="none" xmlns="http://www.w3.org/2000/svg">
<g id="Navbar Icon" opacity="0.8">
<g id="Vector">
<path fill-rule="evenodd" clip-rule="evenodd" d="M2.66406 10.9391C2.66406 10.511 3.01104 10.1641 3.43906 10.1641H7.81406C8.24208 10.1641 8.58906 10.511 8.58906 10.9391C8.58906 11.3671 8.24208 11.7141 7.81406 11.7141H4.21406V16.5641C4.21406 16.9921 3.86708 17.3391 3.43906 17.3391C3.01104 17.3391 2.66406 16.9921 2.66406 16.5641V10.9391Z" fill="white"/>
<path fill-rule="evenodd" clip-rule="evenodd" d="M1.41406 16.5641C1.41406 16.136 1.76104 15.7891 2.18906 15.7891H17.8141C18.2421 15.7891 18.5891 16.136 18.5891 16.5641C18.5891 16.9921 18.2421 17.3391 17.8141 17.3391H2.18906C1.76104 17.3391 1.41406 16.9921 1.41406 16.5641Z" fill="white"/>
<path fill-rule="evenodd" clip-rule="evenodd" d="M7.03906 7.18906C7.03906 6.76104 7.38604 6.41406 7.81406 6.41406H12.1891C12.6171 6.41406 12.9641 6.76104 12.9641 7.18906C12.9641 7.61708 12.6171 7.96406 12.1891 7.96406H8.58906V16.5641C8.58906 16.9921 8.24208 17.3391 7.81406 17.3391C7.38604 17.3391 7.03906 16.9921 7.03906 16.5641V7.18906Z" fill="white"/>
<path fill-rule="evenodd" clip-rule="evenodd" d="M11.4141 3.43906C11.4141 3.01104 11.761 2.66406 12.1891 2.66406H16.5641C16.9921 2.66406 17.3391 3.01104 17.3391 3.43906V16.5641C17.3391 16.9921 16.9921 17.3391 16.5641 17.3391H12.1891C11.761 17.3391 11.4141 16.9921 11.4141 16.5641V3.43906ZM12.9641 4.21406V15.7891H15.7891V4.21406H12.9641Z" fill="white"/>
</g>
</g>
</svg>
