<svg width="20" height="20" viewBox="0 0 20 20" fill="none" xmlns="http://www.w3.org/2000/svg">
<g id="Navbar Icon" opacity="0.8">
<g id="Vector">
<path fill-rule="evenodd" clip-rule="evenodd" d="M0.835938 3.04024C0.835938 2.65558 1.14641 2.34375 1.52939 2.34375H13.0838C13.4668 2.34375 13.7772 2.65558 13.7772 3.04024V13.0979C13.7772 13.4826 13.4668 13.7944 13.0838 13.7944H1.52939C1.14641 13.7944 0.835938 13.4826 0.835938 13.0979V3.04024ZM2.22284 3.73673V12.4014H12.3903V3.73673H2.22284Z" fill="white"/>
<path fill-rule="evenodd" clip-rule="evenodd" d="M12.3903 6.9086C12.3903 6.52394 12.7008 6.21211 13.0838 6.21211H16.1649C16.3489 6.21211 16.5252 6.28549 16.6553 6.41611L18.9662 8.7371C19.0962 8.86772 19.1693 9.04488 19.1693 9.2296V13.0979C19.1693 13.4826 18.8588 13.7944 18.4758 13.7944L13.0838 13.7944C12.7008 13.7944 12.3903 13.4826 12.3903 13.0979V6.9086ZM13.7772 7.60509V12.4014H17.7824V9.51809L15.8777 7.60509H13.7772Z" fill="white"/>
<path fill-rule="evenodd" clip-rule="evenodd" d="M4.99566 13.7944C4.31509 13.7944 3.76338 14.3485 3.76338 15.0321C3.76338 15.7156 4.31509 16.2697 4.99566 16.2697C5.67623 16.2697 6.22794 15.7156 6.22794 15.0321C6.22794 14.3485 5.67623 13.7944 4.99566 13.7944ZM2.37648 15.0321C2.37648 13.5792 3.54912 12.4014 4.99566 12.4014C6.4422 12.4014 7.61484 13.5792 7.61484 15.0321C7.61484 16.4849 6.4422 17.6627 4.99566 17.6627C3.54912 17.6627 2.37648 16.4849 2.37648 15.0321Z" fill="white"/>
<path fill-rule="evenodd" clip-rule="evenodd" d="M15.0095 13.7944C14.3289 13.7944 13.7772 14.3485 13.7772 15.0321C13.7772 15.7156 14.3289 16.2697 15.0095 16.2697C15.6901 16.2697 16.2418 15.7156 16.2418 15.0321C16.2418 14.3485 15.6901 13.7944 15.0095 13.7944ZM12.3903 15.0321C12.3903 13.5792 13.563 12.4014 15.0095 12.4014C16.456 12.4014 17.6287 13.5792 17.6287 15.0321C17.6287 16.4849 16.456 17.6627 15.0095 17.6627C13.563 17.6627 12.3903 16.4849 12.3903 15.0321Z" fill="white"/>
</g>
</g>
</svg>
