<svg width="20" height="20" viewBox="0 0 20 20" fill="none" xmlns="http://www.w3.org/2000/svg">
<g id="Navbar Icon" opacity="0.8">
<g id="Vector">
<path fill-rule="evenodd" clip-rule="evenodd" d="M12.1074 2.29474C13.0654 1.77224 14.2333 2.46557 14.2333 3.55672V16.451C14.2333 17.5422 13.0653 18.2355 12.1074 17.713L4.04696 13.3164H2.375C1.23591 13.3164 0.3125 12.393 0.3125 11.2539V8.75389C0.3125 7.6148 1.23591 6.69139 2.375 6.69139H4.04692L12.1074 2.29474ZM12.6083 3.87257L5.06662 7.98621V12.0216L12.6083 16.1352V3.87257ZM1.9375 8.75389C1.9375 8.51227 2.13338 8.31639 2.375 8.31639H3.4375V11.6914H2.375C2.13338 11.6914 1.9375 11.4955 1.9375 11.2539V8.75389Z" fill="white"/>
<path d="M18.6387 5.32964C18.919 5.68004 18.8622 6.19134 18.5118 6.47166L16.4284 8.13833C16.078 8.41865 15.5667 8.36184 15.2864 8.01144C15.0061 7.66104 15.0629 7.14973 15.4133 6.86941L17.4966 5.20275C17.847 4.92243 18.3583 4.97924 18.6387 5.32964Z" fill="white"/>
<path d="M15.5041 10.0247C15.5041 9.57599 15.8679 9.21222 16.3166 9.21222H18.8583C19.307 9.21222 19.6708 9.57599 19.6708 10.0247C19.6708 10.4735 19.307 10.8372 18.8583 10.8372H16.3166C15.8679 10.8372 15.5041 10.4735 15.5041 10.0247Z" fill="white"/>
<path d="M16.4284 12.2861C16.078 12.0058 15.5667 12.0626 15.2864 12.413C15.0061 12.7634 15.0629 13.2747 15.4133 13.555L17.4966 15.2217C17.847 15.502 18.3583 15.4452 18.6387 15.0948C18.919 14.7444 18.8622 14.2331 18.5118 13.9528L16.4284 12.2861Z" fill="white"/>
</g>
</g>
</svg>
