<svg width="20" height="20" viewBox="0 0 20 20" fill="none" xmlns="http://www.w3.org/2000/svg">
<g id="Navbar Icon" opacity="0.8">
<path id="Vector" d="M17.0783 10.8307C17.7686 10.8307 18.3283 11.3904 18.3283 12.0807V17.0807C18.3283 17.7711 17.7686 18.3307 17.0783 18.3307H12.0783C11.3879 18.3307 10.8283 17.7711 10.8283 17.0807V12.0807C10.8283 11.3904 11.3879 10.8307 12.0783 10.8307H17.0783ZM7.91406 10.8307C8.60442 10.8307 9.16406 11.3904 9.16406 12.0807V17.0807C9.16406 17.7711 8.60442 18.3307 7.91406 18.3307H2.91406C2.22371 18.3307 1.66406 17.7711 1.66406 17.0807V12.0807C1.66406 11.3904 2.22371 10.8307 2.91406 10.8307H7.91406ZM16.9116 12.2474H12.2449V16.9141H16.9116V12.2474ZM7.7474 12.2474H3.08073V16.9141H7.7474V12.2474ZM7.91406 1.66406C8.60442 1.66406 9.16406 2.22371 9.16406 2.91406V7.91406C9.16406 8.60442 8.60442 9.16406 7.91406 9.16406H2.91406C2.22371 9.16406 1.66406 8.60442 1.66406 7.91406V2.91406C1.66406 2.22371 2.22371 1.66406 2.91406 1.66406H7.91406ZM17.0783 1.66406C17.7686 1.66406 18.3283 2.22371 18.3283 2.91406V7.91406C18.3283 8.60442 17.7686 9.16406 17.0783 9.16406H12.0783C11.3879 9.16406 10.8283 8.60442 10.8283 7.91406V2.91406C10.8283 2.22371 11.3879 1.66406 12.0783 1.66406H17.0783ZM7.7474 3.08073H3.08073V7.7474H7.7474V3.08073ZM16.9116 3.08073H12.2449V7.7474H16.9116V3.08073Z" fill="white"/>
</g>
</svg>
