<svg width="24" height="24" viewBox="0 0 24 24" fill="none" xmlns="http://www.w3.org/2000/svg">
<g id="outline / wallet">
<path id="wallet" fill-rule="evenodd" clip-rule="evenodd" d="M3.00312 3.79531C2.42636 3.79531 1.80313 4.35331 1.80313 5.24531V18.7453C1.80313 19.6373 2.42636 20.1953 3.00312 20.1953H21.0031C21.5799 20.1953 22.2031 19.6373 22.2031 18.7453V15.8453H17.0032C14.8769 15.8453 13.1532 14.1216 13.1532 11.9953C13.1532 9.86902 14.8769 8.14532 17.0032 8.14532H22.2031V5.24531C22.2031 4.35331 21.5799 3.79531 21.0031 3.79531H3.00312ZM23.8031 8.14532V5.24531C23.8031 3.65203 22.6355 2.19531 21.0031 2.19531H3.00312C1.37075 2.19531 0.203125 3.65203 0.203125 5.24531V18.7453C0.203125 20.3386 1.37075 21.7953 3.00312 21.7953H21.0031C22.6355 21.7953 23.8031 20.3386 23.8031 18.7453V15.8453H23.8532V8.14532H23.8031ZM16.0032 11.9453C16.0032 11.4759 16.3837 11.0953 16.8532 11.0953H18.1532C18.6226 11.0953 19.0032 11.4759 19.0032 11.9453C19.0032 12.4148 18.6226 12.7953 18.1532 12.7953H16.8532C16.3837 12.7953 16.0032 12.4148 16.0032 11.9453ZM14.8532 11.9953C14.8532 10.8079 15.8158 9.84532 17.0032 9.84532H22.1532V14.1453H17.0032C15.8158 14.1453 14.8532 13.1827 14.8532 11.9953Z" fill="white"/>
</g>
</svg>
